<mxfile host="app.diagrams.net" modified="2023-04-02T08:02:56.093Z" agent="Mozilla/5.0 (Windows NT 10.0; Win64; x64) AppleWebKit/537.36 (KHTML, like Gecko) Chrome/111.0.0.0 Safari/537.36" etag="gJemyy6bchOlb-3Oo_ff" version="21.1.2" type="github">
  <diagram id="C5RBs43oDa-KdzZeNtuy" name="Page-1">
    <mxGraphModel dx="1434" dy="764" grid="1" gridSize="10" guides="1" tooltips="1" connect="1" arrows="1" fold="1" page="1" pageScale="1" pageWidth="827" pageHeight="1169" math="0" shadow="0">
      <root>
        <mxCell id="WIyWlLk6GJQsqaUBKTNV-0" />
        <mxCell id="WIyWlLk6GJQsqaUBKTNV-1" parent="WIyWlLk6GJQsqaUBKTNV-0" />
        <mxCell id="WIyWlLk6GJQsqaUBKTNV-2" value="" style="rounded=0;html=1;jettySize=auto;orthogonalLoop=1;fontSize=11;endArrow=block;endFill=0;endSize=8;strokeWidth=1;shadow=0;labelBackgroundColor=none;edgeStyle=orthogonalEdgeStyle;" parent="WIyWlLk6GJQsqaUBKTNV-1" source="WIyWlLk6GJQsqaUBKTNV-3" edge="1">
          <mxGeometry relative="1" as="geometry">
            <mxPoint x="220" y="170" as="targetPoint" />
          </mxGeometry>
        </mxCell>
        <mxCell id="WIyWlLk6GJQsqaUBKTNV-3" value="安全出金" style="rounded=1;whiteSpace=wrap;html=1;fontSize=12;glass=0;strokeWidth=1;shadow=0;" parent="WIyWlLk6GJQsqaUBKTNV-1" vertex="1">
          <mxGeometry x="160" y="80" width="120" height="40" as="geometry" />
        </mxCell>
        <mxCell id="2xgJyRmW6_UcMgAZocEG-2" value="" style="edgeStyle=orthogonalEdgeStyle;rounded=0;orthogonalLoop=1;jettySize=auto;html=1;" edge="1" parent="WIyWlLk6GJQsqaUBKTNV-1" source="2xgJyRmW6_UcMgAZocEG-0" target="2xgJyRmW6_UcMgAZocEG-1">
          <mxGeometry relative="1" as="geometry" />
        </mxCell>
        <mxCell id="2xgJyRmW6_UcMgAZocEG-3" value="" style="edgeStyle=orthogonalEdgeStyle;rounded=0;orthogonalLoop=1;jettySize=auto;html=1;" edge="1" parent="WIyWlLk6GJQsqaUBKTNV-1" source="2xgJyRmW6_UcMgAZocEG-0" target="2xgJyRmW6_UcMgAZocEG-1">
          <mxGeometry relative="1" as="geometry" />
        </mxCell>
        <mxCell id="2xgJyRmW6_UcMgAZocEG-5" style="edgeStyle=orthogonalEdgeStyle;rounded=0;orthogonalLoop=1;jettySize=auto;html=1;entryX=0.5;entryY=0;entryDx=0;entryDy=0;" edge="1" parent="WIyWlLk6GJQsqaUBKTNV-1" source="2xgJyRmW6_UcMgAZocEG-0" target="2xgJyRmW6_UcMgAZocEG-4">
          <mxGeometry relative="1" as="geometry" />
        </mxCell>
        <mxCell id="2xgJyRmW6_UcMgAZocEG-0" value="交易所" style="rounded=1;whiteSpace=wrap;html=1;" vertex="1" parent="WIyWlLk6GJQsqaUBKTNV-1">
          <mxGeometry x="160" y="170" width="120" height="60" as="geometry" />
        </mxCell>
        <mxCell id="2xgJyRmW6_UcMgAZocEG-7" value="" style="edgeStyle=orthogonalEdgeStyle;rounded=0;orthogonalLoop=1;jettySize=auto;html=1;" edge="1" parent="WIyWlLk6GJQsqaUBKTNV-1" source="2xgJyRmW6_UcMgAZocEG-1" target="2xgJyRmW6_UcMgAZocEG-6">
          <mxGeometry relative="1" as="geometry" />
        </mxCell>
        <mxCell id="2xgJyRmW6_UcMgAZocEG-1" value="Kraken" style="whiteSpace=wrap;html=1;rounded=1;" vertex="1" parent="WIyWlLk6GJQsqaUBKTNV-1">
          <mxGeometry x="90" y="270" width="120" height="60" as="geometry" />
        </mxCell>
        <mxCell id="2xgJyRmW6_UcMgAZocEG-8" style="edgeStyle=orthogonalEdgeStyle;rounded=0;orthogonalLoop=1;jettySize=auto;html=1;entryX=0.5;entryY=0;entryDx=0;entryDy=0;" edge="1" parent="WIyWlLk6GJQsqaUBKTNV-1" source="2xgJyRmW6_UcMgAZocEG-4" target="2xgJyRmW6_UcMgAZocEG-6">
          <mxGeometry relative="1" as="geometry" />
        </mxCell>
        <mxCell id="2xgJyRmW6_UcMgAZocEG-4" value="Bitfinex" style="rounded=1;whiteSpace=wrap;html=1;" vertex="1" parent="WIyWlLk6GJQsqaUBKTNV-1">
          <mxGeometry x="230" y="270" width="120" height="60" as="geometry" />
        </mxCell>
        <mxCell id="2xgJyRmW6_UcMgAZocEG-10" value="" style="edgeStyle=orthogonalEdgeStyle;rounded=0;orthogonalLoop=1;jettySize=auto;html=1;" edge="1" parent="WIyWlLk6GJQsqaUBKTNV-1" source="2xgJyRmW6_UcMgAZocEG-6" target="2xgJyRmW6_UcMgAZocEG-9">
          <mxGeometry relative="1" as="geometry" />
        </mxCell>
        <mxCell id="2xgJyRmW6_UcMgAZocEG-11" value="" style="edgeStyle=orthogonalEdgeStyle;rounded=0;orthogonalLoop=1;jettySize=auto;html=1;" edge="1" parent="WIyWlLk6GJQsqaUBKTNV-1" source="2xgJyRmW6_UcMgAZocEG-6" target="2xgJyRmW6_UcMgAZocEG-9">
          <mxGeometry relative="1" as="geometry" />
        </mxCell>
        <mxCell id="2xgJyRmW6_UcMgAZocEG-13" style="edgeStyle=orthogonalEdgeStyle;rounded=0;orthogonalLoop=1;jettySize=auto;html=1;entryX=0.5;entryY=0;entryDx=0;entryDy=0;" edge="1" parent="WIyWlLk6GJQsqaUBKTNV-1" source="2xgJyRmW6_UcMgAZocEG-6" target="2xgJyRmW6_UcMgAZocEG-12">
          <mxGeometry relative="1" as="geometry" />
        </mxCell>
        <mxCell id="2xgJyRmW6_UcMgAZocEG-6" value="中介银行" style="whiteSpace=wrap;html=1;rounded=1;" vertex="1" parent="WIyWlLk6GJQsqaUBKTNV-1">
          <mxGeometry x="160" y="410" width="120" height="60" as="geometry" />
        </mxCell>
        <mxCell id="2xgJyRmW6_UcMgAZocEG-9" value="N26" style="whiteSpace=wrap;html=1;rounded=1;" vertex="1" parent="WIyWlLk6GJQsqaUBKTNV-1">
          <mxGeometry x="90" y="510" width="120" height="60" as="geometry" />
        </mxCell>
        <mxCell id="2xgJyRmW6_UcMgAZocEG-12" value="Bankera" style="rounded=1;whiteSpace=wrap;html=1;" vertex="1" parent="WIyWlLk6GJQsqaUBKTNV-1">
          <mxGeometry x="230" y="510" width="120" height="60" as="geometry" />
        </mxCell>
      </root>
    </mxGraphModel>
  </diagram>
</mxfile>
